<?xml version="1.0" encoding="UTF-8"?>
<svg id="Layer_1" data-name="Layer 1" xmlns="http://www.w3.org/2000/svg" viewBox="0 0 532.41 153.77">
  <defs>
    <style>
      .cls-1 {
        fill: #f79e00;
      }
    </style>
  </defs>
  <path class="cls-1" d="M0,149.73V4.71C0,2.75,1.3,1.23,3.26,1.23H82.06c1.95,0,3.47,1.52,3.47,3.47V31.19c0,1.95-1.52,3.47-3.47,3.47H37.78v24.53h41.47c1.95,0,3.47,1.52,3.47,3.47v26.49c0,1.95-1.52,3.47-3.47,3.47H37.78v57.1c0,1.96-1.52,3.47-3.47,3.47H3.26c-1.95,0-3.26-1.52-3.26-3.47Z"/>
  <path class="cls-1" d="M168.24,149.73v-27.57c0-1.52,.43-2.61,1.3-3.91l60.57-83.59h-56.45c-1.95,0-3.26-1.52-3.26-3.47V4.71c0-1.95,1.3-3.47,3.26-3.47h91.18c1.95,0,3.47,1.52,3.47,3.47v27.57c0,1.52-.43,2.61-1.3,3.91l-60.79,83.59h60.79c1.95,0,3.47,1.52,3.47,3.47v26.49c0,1.96-1.52,3.47-3.47,3.47h-95.53c-1.95,0-3.26-1.52-3.26-3.47Z"/>
  <path class="cls-1" d="M287.63,149.73v-27.57c0-1.52,.43-2.61,1.3-3.91l60.57-83.59h-56.45c-1.95,0-3.26-1.52-3.26-3.47V4.71c0-1.95,1.3-3.47,3.26-3.47h91.18c1.95,0,3.47,1.52,3.47,3.47v27.57c0,1.52-.43,2.61-1.3,3.91l-60.79,83.59h60.79c1.95,0,3.47,1.52,3.47,3.47v26.49c0,1.96-1.52,3.47-3.47,3.47h-95.53c-1.95,0-3.26-1.52-3.26-3.47Z"/>
  <path class="cls-1" d="M449.8,149.73V83.73L405.51,5.14c-1.3-2.6-.43-3.91,2.17-3.91h32.13c1.74,0,3.26,.65,4.13,2.17l24.75,46.24L493.43,3.41c.87-1.52,2.17-2.17,3.91-2.17h32.13c2.6,0,3.69,1.3,2.39,3.91l-44.29,79.03v65.56c0,1.96-1.52,3.47-3.47,3.47h-31.05c-1.95,0-3.26-1.52-3.26-3.47Z"/>
  <circle class="cls-1" cx="123.35" cy="13.57" r="13.57"/>
  <circle class="cls-1" cx="138.43" cy="40.69" r="13.57"/>
  <circle class="cls-1" cx="117.32" cy="61.81" r="13.57"/>
  <circle class="cls-1" cx="138.43" cy="85.93" r="13.57"/>
  <circle class="cls-1" cx="120.34" cy="110.05" r="13.57"/>
  <circle class="cls-1" cx="123.35" cy="140.2" r="13.57"/>
</svg>